<svg width="935" height="935" viewBox="0 0 935 935" fill="none" xmlns="http://www.w3.org/2000/svg">
<g clip-path="url(#clip0_18_2)">
<path d="M839.045 662.023C819.977 692.571 796.091 720.831 767.466 745.657C613.138 879.502 379.528 862.898 245.683 708.571C111.838 554.243 128.442 320.633 282.77 186.788C311.395 161.962 342.749 142.313 375.687 127.758L839.045 662.023Z" fill="#F92C63"/>
<path d="M839.045 662.023C819.977 692.571 796.091 720.831 767.466 745.657C613.138 879.502 379.528 862.898 245.683 708.571C111.838 554.243 128.442 320.633 282.77 186.788C311.395 161.962 342.749 142.313 375.687 127.758L839.045 662.023Z" fill="#F92C63"/>
<path d="M839.045 662.023C819.977 692.571 796.091 720.831 767.466 745.657C613.138 879.502 379.528 862.898 245.683 708.571C111.838 554.243 128.442 320.633 282.77 186.788C311.395 161.962 342.749 142.313 375.687 127.758L839.045 662.023Z" fill="#F92C63"/>
<path d="M837.98 660.795C819.604 692.141 796.091 720.831 767.465 745.658C613.138 879.503 368.708 850.422 221.515 680.705C74.3228 510.988 80.1071 264.902 234.434 131.057C263.06 106.231 294.787 87.0108 328.417 73.253L837.98 660.795Z" fill="#F92C63"/>
<path d="M730.243 288.247C794.488 362.323 832.923 445.57 843.706 519.734C854.518 594.093 837.428 657.123 793.942 694.838C750.456 732.553 685.642 740.556 613.56 719.335C541.666 698.171 464.693 648.349 400.448 574.272C336.203 500.196 297.769 416.949 286.985 342.785C276.173 268.426 293.263 205.395 336.749 167.68C380.236 129.966 445.049 121.963 517.131 143.184C589.025 164.348 665.998 214.17 730.243 288.247Z" fill="#F5F9FF" stroke="#F92C63" stroke-width="30"/>
<path d="M730.243 288.247C794.488 362.323 832.923 445.57 843.706 519.734C854.518 594.093 837.428 657.123 793.942 694.838C750.456 732.553 685.642 740.556 613.56 719.335C541.666 698.171 464.693 648.349 400.448 574.272C336.203 500.196 297.769 416.949 286.985 342.785C276.173 268.426 293.263 205.395 336.749 167.68C380.236 129.966 445.049 121.963 517.131 143.184C589.025 164.348 665.998 214.17 730.243 288.247Z" fill="#F5F9FF" stroke="#F92C63" stroke-width="30"/>
<path d="M706.174 260.493C777.235 342.429 821.728 432.846 836.763 512.238C851.879 592.054 836.894 657.588 793.943 694.838C750.993 732.088 683.998 737.655 607.122 711.401C530.654 685.288 447.44 628.454 376.378 546.518C305.316 464.582 260.824 374.165 245.788 294.773C230.672 214.956 245.658 149.422 288.609 112.172C331.559 74.9224 398.554 69.3564 475.429 95.6095C551.897 121.723 635.112 178.557 706.174 260.493Z" fill="#F5F9FF" stroke="#F92C63" stroke-width="30"/>
<path d="M540.579 543.097C545.27 544.174 549.761 545.988 553.883 548.471L563.281 554.133L569.572 558.237C570.458 558.661 571.327 559.145 572.172 559.696C582.502 566.435 585.413 580.273 578.674 590.604C571.935 600.934 558.098 603.845 547.768 597.106C541.704 593.15 538.197 586.747 537.698 580.045L533.938 560.166L533.934 560.15L533.933 560.132L532.088 544.578C531.885 542.861 533.445 541.46 535.13 541.846L540.579 543.097ZM624.107 486.899C628.797 487.975 633.288 489.788 637.41 492.271L646.808 497.933L653.104 502.04C653.988 502.463 654.855 502.948 655.699 503.498C666.028 510.237 668.939 524.074 662.2 534.405C655.461 544.734 641.625 547.646 631.294 540.907C625.227 536.949 621.719 530.541 621.223 523.833L617.465 503.966L617.462 503.95L617.46 503.933L615.615 488.378C615.412 486.661 616.971 485.26 618.657 485.647L624.107 486.899ZM524.521 428.838L529.971 430.089C534.662 431.166 539.153 432.979 543.275 435.462L552.673 441.124L558.958 445.225C559.846 445.649 560.717 446.135 561.564 446.688C571.894 453.427 574.805 467.265 568.066 477.596C561.327 487.925 547.49 490.836 537.16 484.097C531.097 480.142 527.592 473.742 527.091 467.041L523.331 447.157L523.326 447.14L523.324 447.123L521.48 431.569C521.277 429.852 522.836 428.452 524.521 428.838ZM414.277 388.974C418.968 390.05 423.459 391.863 427.581 394.347L436.979 400.01L443.263 404.108C444.151 404.533 445.023 405.02 445.87 405.573C456.2 412.312 459.112 426.149 452.373 436.479C445.634 446.81 431.796 449.721 421.466 442.982C415.403 439.027 411.898 432.627 411.397 425.926L407.636 406.042L407.632 406.025L407.631 406.008L405.786 390.454C405.583 388.737 407.142 387.337 408.828 387.723L414.277 388.974ZM703.492 422.779C708.183 423.855 712.673 425.669 716.796 428.153L726.193 433.815L732.482 437.916C733.369 438.34 734.239 438.826 735.085 439.378C745.415 446.117 748.326 459.955 741.587 470.285C734.848 480.615 721.011 483.526 710.681 476.787C704.618 472.832 701.113 466.432 700.612 459.731L696.851 439.847L696.847 439.83L696.845 439.813L695.001 424.26C694.797 422.543 696.356 421.142 698.042 421.528L703.492 422.779ZM608.552 370.078C613.242 371.154 617.733 372.967 621.856 375.451L631.253 381.113L637.543 385.217C638.43 385.64 639.3 386.126 640.145 386.677C650.475 393.416 653.386 407.253 646.647 417.583C639.908 427.914 626.07 430.825 615.739 424.086C609.676 420.13 606.17 413.727 605.671 407.024L601.911 387.146L601.906 387.129L601.905 387.112L600.061 371.558C599.857 369.841 601.416 368.44 603.102 368.826L608.552 370.078ZM490.215 314.224C494.906 315.3 499.397 317.113 503.519 319.597L512.917 325.259L519.205 329.361C520.092 329.785 520.963 330.271 521.808 330.822C532.138 337.562 535.05 351.4 528.311 361.73C521.571 372.06 507.734 374.97 497.404 368.231C491.34 364.275 487.834 357.873 487.334 351.17L483.575 331.292L483.57 331.275L483.569 331.258L481.725 315.703C481.521 313.986 483.08 312.586 484.765 312.973L490.215 314.224ZM363.959 258.736C368.771 258.636 373.568 259.299 378.171 260.703L388.666 263.904L395.771 266.351C396.732 266.546 397.693 266.804 398.645 267.132C410.306 271.15 416.502 283.86 412.485 295.521C408.467 307.182 395.758 313.379 384.096 309.362C377.249 307.003 372.287 301.646 370.169 295.265L361.679 276.907L361.671 276.892L361.666 276.876L356.086 262.241C355.469 260.625 356.64 258.886 358.369 258.85L363.959 258.736ZM580.825 250.876C585.516 251.953 590.007 253.766 594.129 256.249L603.527 261.911L609.817 266.015C610.703 266.438 611.573 266.924 612.418 267.475C622.748 274.214 625.659 288.052 618.92 298.382C612.181 308.712 598.343 311.623 588.013 304.884C581.949 300.928 578.442 294.525 577.943 287.822L574.184 267.944L574.18 267.927L574.178 267.91L572.334 252.356C572.131 250.639 573.69 249.238 575.375 249.624L580.825 250.876ZM479.037 196.835C483.728 197.912 488.218 199.725 492.34 202.208L501.739 207.871L508.029 211.974C508.915 212.397 509.784 212.883 510.629 213.434C520.959 220.173 523.87 234.011 517.131 244.341C510.392 254.671 496.555 257.583 486.225 250.844C480.161 246.888 476.655 240.484 476.155 233.781L472.396 213.903L472.392 213.886L472.39 213.869L470.546 198.315C470.342 196.598 471.902 195.198 473.587 195.584L479.037 196.835Z" fill="black"/>
</g>
<defs>
<clipPath id="clip0_18_2">
<rect width="935" height="935" fill="white"/>
</clipPath>
</defs>
</svg>
